<mxfile host="app.diagrams.net" agent="Mozilla/5.0 (X11; Linux x86_64) AppleWebKit/537.36 (KHTML, like Gecko) Chrome/138.0.0.0 Safari/537.36 OPR/122.0.0.0" version="28.2.5">
  <diagram name="Sida-1" id="IzjUo01BGnxRS-cWl13Y">
    <mxGraphModel dx="1372" dy="802" grid="1" gridSize="10" guides="1" tooltips="1" connect="1" arrows="1" fold="1" page="1" pageScale="1" pageWidth="827" pageHeight="1169" math="0" shadow="0">
      <root>
        <mxCell id="0" />
        <mxCell id="1" parent="0" />
        <mxCell id="IYgLdtd5FK7ewOH0wKca-2" value="ext-firewall" style="sketch=0;outlineConnect=0;fontColor=#232F3E;gradientColor=none;fillColor=#DD344C;strokeColor=none;dashed=0;verticalLabelPosition=bottom;verticalAlign=top;align=center;html=1;fontSize=12;fontStyle=0;aspect=fixed;pointerEvents=1;shape=mxgraph.aws4.network_firewall_endpoints;" vertex="1" parent="1">
          <mxGeometry x="340" y="187" width="78" height="78" as="geometry" />
        </mxCell>
        <mxCell id="IYgLdtd5FK7ewOH0wKca-15" style="edgeStyle=orthogonalEdgeStyle;rounded=0;orthogonalLoop=1;jettySize=auto;html=1;" edge="1" parent="1" source="IYgLdtd5FK7ewOH0wKca-3" target="IYgLdtd5FK7ewOH0wKca-2">
          <mxGeometry relative="1" as="geometry" />
        </mxCell>
        <mxCell id="IYgLdtd5FK7ewOH0wKca-3" value="internet" style="ellipse;shape=cloud;whiteSpace=wrap;html=1;" vertex="1" parent="1">
          <mxGeometry x="190" y="185" width="120" height="80" as="geometry" />
        </mxCell>
        <mxCell id="IYgLdtd5FK7ewOH0wKca-4" value="användare" style="verticalLabelPosition=bottom;html=1;verticalAlign=top;align=center;strokeColor=none;fillColor=#00BEF2;shape=mxgraph.azure.user;" vertex="1" parent="1">
          <mxGeometry x="90" y="204" width="47.5" height="50" as="geometry" />
        </mxCell>
        <mxCell id="IYgLdtd5FK7ewOH0wKca-6" value="DMZ&lt;div&gt;&lt;br&gt;&lt;/div&gt;&lt;div&gt;&lt;br&gt;&lt;/div&gt;&lt;div&gt;&lt;br&gt;&lt;/div&gt;&lt;div&gt;&lt;br&gt;&lt;/div&gt;&lt;div&gt;&lt;br&gt;&lt;/div&gt;&lt;div&gt;&lt;br&gt;&lt;/div&gt;&lt;div&gt;&lt;br&gt;&lt;/div&gt;&lt;div&gt;&lt;br&gt;&lt;/div&gt;&lt;div&gt;&lt;br&gt;&lt;/div&gt;&lt;div&gt;&lt;br&gt;&lt;/div&gt;&lt;div&gt;&lt;br&gt;&lt;/div&gt;&lt;div&gt;&lt;br&gt;&lt;/div&gt;&lt;div&gt;&lt;br&gt;&lt;/div&gt;&lt;div&gt;&lt;br&gt;&lt;/div&gt;&lt;div&gt;&lt;br&gt;&lt;/div&gt;&lt;div&gt;&lt;br&gt;&lt;/div&gt;" style="rounded=0;whiteSpace=wrap;html=1;fillColor=#f8cecc;strokeColor=#b85450;" vertex="1" parent="1">
          <mxGeometry x="434.5" y="101" width="120" height="250" as="geometry" />
        </mxCell>
        <mxCell id="IYgLdtd5FK7ewOH0wKca-5" value="F5 BigIP" style="outlineConnect=0;dashed=0;verticalLabelPosition=bottom;verticalAlign=top;align=center;html=1;shape=mxgraph.aws3.classic_load_balancer;fillColor=#F58534;gradientColor=none;" vertex="1" parent="1">
          <mxGeometry x="460" y="187" width="69" height="72" as="geometry" />
        </mxCell>
        <mxCell id="IYgLdtd5FK7ewOH0wKca-9" value="" style="group" vertex="1" connectable="0" parent="1">
          <mxGeometry x="690" y="80" width="201" height="280" as="geometry" />
        </mxCell>
        <mxCell id="IYgLdtd5FK7ewOH0wKca-10" value="&lt;div&gt;&lt;br&gt;&lt;/div&gt;&lt;div&gt;&lt;br&gt;&lt;/div&gt;&lt;div&gt;&lt;br&gt;&lt;/div&gt;&lt;div&gt;&lt;br&gt;&lt;/div&gt;&lt;div&gt;&lt;br&gt;&lt;/div&gt;BILL" style="points=[];aspect=fixed;html=1;align=center;shadow=0;dashed=0;fillColor=#FF6A00;strokeColor=none;shape=mxgraph.alibaba_cloud.ahas_application_high_availability_service;" vertex="1" parent="IYgLdtd5FK7ewOH0wKca-9">
          <mxGeometry x="52.25" y="80" width="46.5" height="53.7" as="geometry" />
        </mxCell>
        <mxCell id="IYgLdtd5FK7ewOH0wKca-12" value="" style="group" vertex="1" connectable="0" parent="IYgLdtd5FK7ewOH0wKca-9">
          <mxGeometry x="50" y="74.99666666666667" width="151" height="205.00333333333333" as="geometry" />
        </mxCell>
        <mxCell id="IYgLdtd5FK7ewOH0wKca-7" value="" style="image;aspect=fixed;html=1;points=[];align=center;fontSize=12;image=img/lib/azure2/containers/Azure_Red_Hat_OpenShift.svg;" vertex="1" parent="IYgLdtd5FK7ewOH0wKca-12">
          <mxGeometry x="0.0016666666666651508" width="35.233333333333334" height="35.233333333333334" as="geometry" />
        </mxCell>
        <mxCell id="IYgLdtd5FK7ewOH0wKca-11" value="Segregerat nät&lt;div&gt;&lt;br&gt;&lt;/div&gt;&lt;div&gt;&lt;br&gt;&lt;/div&gt;&lt;div&gt;&lt;br&gt;&lt;/div&gt;&lt;div&gt;&lt;br&gt;&lt;/div&gt;&lt;div&gt;&lt;br&gt;&lt;/div&gt;&lt;div&gt;&lt;br&gt;&lt;/div&gt;&lt;div&gt;&lt;br&gt;&lt;/div&gt;&lt;div&gt;&lt;br&gt;&lt;/div&gt;&lt;div&gt;&lt;br&gt;&lt;/div&gt;&lt;div&gt;&lt;br&gt;&lt;/div&gt;&lt;div&gt;&lt;br&gt;&lt;/div&gt;&lt;div&gt;&lt;br&gt;&lt;/div&gt;&lt;div&gt;&lt;br&gt;&lt;/div&gt;&lt;div&gt;&lt;br&gt;&lt;/div&gt;&lt;div&gt;&lt;br&gt;&lt;/div&gt;&lt;div&gt;&lt;br&gt;&lt;/div&gt;" style="rounded=0;whiteSpace=wrap;html=1;fillColor=#dae8fc;strokeColor=#6c8ebf;" vertex="1" parent="IYgLdtd5FK7ewOH0wKca-12">
          <mxGeometry x="-150" y="-84.99666666666667" width="230" height="290" as="geometry" />
        </mxCell>
        <mxCell id="IYgLdtd5FK7ewOH0wKca-8" value="OpenShift&lt;div&gt;&lt;br&gt;&lt;/div&gt;&lt;div&gt;&lt;br&gt;&lt;/div&gt;&lt;div&gt;&lt;br&gt;&lt;/div&gt;&lt;div&gt;&lt;br&gt;&lt;/div&gt;&lt;div&gt;&lt;br&gt;&lt;/div&gt;&lt;div&gt;&lt;br&gt;&lt;/div&gt;&lt;div&gt;&lt;br&gt;&lt;/div&gt;&lt;div&gt;&lt;br&gt;&lt;/div&gt;" style="rounded=0;whiteSpace=wrap;html=1;fillColor=#fff2cc;strokeColor=#d6b656;" vertex="1" parent="IYgLdtd5FK7ewOH0wKca-12">
          <mxGeometry x="-110.5" y="-24.99666666666667" width="151" height="185" as="geometry" />
        </mxCell>
        <mxCell id="IYgLdtd5FK7ewOH0wKca-13" value="" style="image;aspect=fixed;html=1;points=[];align=center;fontSize=12;image=img/lib/azure2/containers/Azure_Red_Hat_OpenShift.svg;" vertex="1" parent="IYgLdtd5FK7ewOH0wKca-12">
          <mxGeometry x="-110.5" y="-24.99666666666667" width="38" height="38" as="geometry" />
        </mxCell>
        <mxCell id="IYgLdtd5FK7ewOH0wKca-18" value="&lt;div&gt;&lt;br&gt;&lt;/div&gt;&lt;div&gt;&lt;br&gt;&lt;/div&gt;&lt;div&gt;&lt;br&gt;&lt;/div&gt;&lt;div&gt;&lt;br&gt;&lt;/div&gt;&lt;div&gt;&lt;br&gt;&lt;/div&gt;&lt;div&gt;BILL&lt;/div&gt;" style="points=[];aspect=fixed;html=1;align=center;shadow=0;dashed=0;fillColor=#FF6A00;strokeColor=none;shape=mxgraph.alibaba_cloud.ahas_application_high_availability_service;" vertex="1" parent="IYgLdtd5FK7ewOH0wKca-12">
          <mxGeometry x="-58.25" y="45.00333333333333" width="46.5" height="53.7" as="geometry" />
        </mxCell>
        <mxCell id="IYgLdtd5FK7ewOH0wKca-19" style="edgeStyle=orthogonalEdgeStyle;rounded=0;orthogonalLoop=1;jettySize=auto;html=1;entryX=-0.059;entryY=0.521;entryDx=0;entryDy=0;entryPerimeter=0;" edge="1" parent="IYgLdtd5FK7ewOH0wKca-12" target="IYgLdtd5FK7ewOH0wKca-18">
          <mxGeometry relative="1" as="geometry">
            <mxPoint x="-110" y="73.00333333333333" as="sourcePoint" />
          </mxGeometry>
        </mxCell>
        <mxCell id="IYgLdtd5FK7ewOH0wKca-14" style="edgeStyle=orthogonalEdgeStyle;rounded=0;orthogonalLoop=1;jettySize=auto;html=1;entryX=0.16;entryY=0.55;entryDx=0;entryDy=0;entryPerimeter=0;" edge="1" parent="1" source="IYgLdtd5FK7ewOH0wKca-4" target="IYgLdtd5FK7ewOH0wKca-3">
          <mxGeometry relative="1" as="geometry" />
        </mxCell>
        <mxCell id="IYgLdtd5FK7ewOH0wKca-16" style="rounded=0;orthogonalLoop=1;jettySize=auto;html=1;entryX=0;entryY=0.5;entryDx=0;entryDy=0;entryPerimeter=0;" edge="1" parent="1" source="IYgLdtd5FK7ewOH0wKca-2" target="IYgLdtd5FK7ewOH0wKca-5">
          <mxGeometry relative="1" as="geometry" />
        </mxCell>
        <mxCell id="IYgLdtd5FK7ewOH0wKca-17" style="edgeStyle=orthogonalEdgeStyle;rounded=0;orthogonalLoop=1;jettySize=auto;html=1;" edge="1" parent="1" source="IYgLdtd5FK7ewOH0wKca-5" target="IYgLdtd5FK7ewOH0wKca-8">
          <mxGeometry relative="1" as="geometry" />
        </mxCell>
        <mxCell id="IYgLdtd5FK7ewOH0wKca-23" value="" style="group" vertex="1" connectable="0" parent="1">
          <mxGeometry x="970" y="106" width="120" height="210" as="geometry" />
        </mxCell>
        <mxCell id="IYgLdtd5FK7ewOH0wKca-20" value="Servernät&lt;div&gt;&lt;br&gt;&lt;/div&gt;&lt;div&gt;&lt;br&gt;&lt;/div&gt;&lt;div&gt;&lt;br&gt;&lt;/div&gt;&lt;div&gt;&lt;br&gt;&lt;/div&gt;&lt;div&gt;&lt;br&gt;&lt;/div&gt;&lt;div&gt;&lt;br&gt;&lt;/div&gt;&lt;div&gt;&lt;br&gt;&lt;/div&gt;&lt;div&gt;&lt;br&gt;&lt;/div&gt;&lt;div&gt;&lt;br&gt;&lt;/div&gt;&lt;div&gt;&lt;br&gt;&lt;/div&gt;&lt;div&gt;&lt;br&gt;&lt;/div&gt;" style="rounded=0;whiteSpace=wrap;html=1;" vertex="1" parent="IYgLdtd5FK7ewOH0wKca-23">
          <mxGeometry width="120" height="210" as="geometry" />
        </mxCell>
        <mxCell id="IYgLdtd5FK7ewOH0wKca-21" value="Databas" style="image;aspect=fixed;perimeter=ellipsePerimeter;html=1;align=center;shadow=0;dashed=0;spacingTop=3;image=img/lib/active_directory/database_server.svg;" vertex="1" parent="IYgLdtd5FK7ewOH0wKca-23">
          <mxGeometry x="39.5" y="85" width="41" height="50" as="geometry" />
        </mxCell>
        <mxCell id="IYgLdtd5FK7ewOH0wKca-22" style="edgeStyle=orthogonalEdgeStyle;rounded=0;orthogonalLoop=1;jettySize=auto;html=1;entryX=0;entryY=0.75;entryDx=0;entryDy=0;" edge="1" parent="1" source="IYgLdtd5FK7ewOH0wKca-24" target="IYgLdtd5FK7ewOH0wKca-21">
          <mxGeometry relative="1" as="geometry" />
        </mxCell>
        <mxCell id="IYgLdtd5FK7ewOH0wKca-25" value="" style="edgeStyle=orthogonalEdgeStyle;rounded=0;orthogonalLoop=1;jettySize=auto;html=1;" edge="1" parent="1" source="IYgLdtd5FK7ewOH0wKca-18" target="IYgLdtd5FK7ewOH0wKca-24">
          <mxGeometry relative="1" as="geometry">
            <mxPoint x="728" y="227" as="sourcePoint" />
            <mxPoint x="1012" y="227" as="targetPoint" />
          </mxGeometry>
        </mxCell>
        <mxCell id="IYgLdtd5FK7ewOH0wKca-24" value="int-firewall" style="sketch=0;outlineConnect=0;fontColor=#232F3E;gradientColor=none;fillColor=#DD344C;strokeColor=none;dashed=0;verticalLabelPosition=bottom;verticalAlign=top;align=center;html=1;fontSize=12;fontStyle=0;aspect=fixed;pointerEvents=1;shape=mxgraph.aws4.network_firewall_endpoints;" vertex="1" parent="1">
          <mxGeometry x="860" y="188" width="78" height="78" as="geometry" />
        </mxCell>
      </root>
    </mxGraphModel>
  </diagram>
</mxfile>
